<svg xmlns="http://www.w3.org/2000/svg" width="32" height="32" viewBox="0 0 32 32">
  <rect width="32" height="32" rx="6" fill="#000000"/>
  <!-- Pixel art "C" in purple #A855F7, 4px grid, 7x7 pixels, centered -->
  <g fill="#A855F7" transform="translate(2, 2)">
    <!-- Row 0: cols 1-4 -->
    <rect x="4"  y="0"  width="4" height="4"/>
    <rect x="8"  y="0"  width="4" height="4"/>
    <rect x="12" y="0"  width="4" height="4"/>
    <rect x="16" y="0"  width="4" height="4"/>
    <!-- Row 1: col 0, col 5 -->
    <rect x="0"  y="4"  width="4" height="4"/>
    <rect x="20" y="4"  width="4" height="4"/>
    <!-- Row 2: col 0 -->
    <rect x="0"  y="8"  width="4" height="4"/>
    <!-- Row 3: col 0 -->
    <rect x="0"  y="12" width="4" height="4"/>
    <!-- Row 4: col 0 -->
    <rect x="0"  y="16" width="4" height="4"/>
    <!-- Row 5: col 0, col 5 -->
    <rect x="0"  y="20" width="4" height="4"/>
    <rect x="20" y="20" width="4" height="4"/>
    <!-- Row 6: cols 1-4 -->
    <rect x="4"  y="24" width="4" height="4"/>
    <rect x="8"  y="24" width="4" height="4"/>
    <rect x="12" y="24" width="4" height="4"/>
    <rect x="16" y="24" width="4" height="4"/>
  </g>
</svg>
